<svg xmlns="http://www.w3.org/2000/svg" xmlns:xlink="http://www.w3.org/1999/xlink" width="375" height="70" viewBox="0 0 375 70">
  <defs>
    <clipPath id="clip-path">
      <rect id="Rectangle_6" data-name="Rectangle 6" width="375" height="70" transform="translate(0 77)" fill="none"/>
    </clipPath>
  </defs>
  <g id="Group_1" data-name="Group 1" transform="translate(0 -582)">
    <g id="Mask_Group_2" data-name="Mask Group 2" transform="translate(0 505)" clip-path="url(#clip-path)">
      <path id="Path_12" data-name="Path 12" d="M62.324-506.1H43.765V-681.441H40.442V-506.1H21.883V-681.441H18.559V-506.1H0V-700H53.183a8.842,8.842,0,0,1,6.509,2.631,8.842,8.842,0,0,1,2.631,6.509ZM96.949-700a8.619,8.619,0,0,1,6.509,2.77,9.311,9.311,0,0,1,2.631,6.648V-506.1H87.531v-87.531H84.207V-506.1H65.648v-184.48a9.311,9.311,0,0,1,2.631-6.648A8.619,8.619,0,0,1,74.789-700Zm-9.418,87.808v-69.249H84.207v69.249ZM149.855-506.1H131.3V-582.83h-3.324V-506.1H109.414V-700h31.3a8.842,8.842,0,0,1,6.509,2.631,8.842,8.842,0,0,1,2.631,6.509v76.728a9.311,9.311,0,0,1-2.631,6.648,8.619,8.619,0,0,1-6.509,2.77H127.972v3.324h12.742a8.619,8.619,0,0,1,6.509,2.77,9.311,9.311,0,0,1,2.631,6.648Zm-21.883-117.17H131.3v-58.169h-3.324ZM193.621-506.1H175.062V-681.441h-3.324v76.728H153.179V-700H215.5v95.287H196.945v-76.728h-3.324Zm43.765-87.531V-506.1H218.827V-700h18.559v87.808h3.324V-700h18.559v193.9H240.71v-87.531ZM293.894-700a8.619,8.619,0,0,1,6.509,2.77,9.311,9.311,0,0,1,2.631,6.648V-506.1H284.476v-87.531h-3.324V-506.1H262.593v-184.48a9.311,9.311,0,0,1,2.631-6.648,8.619,8.619,0,0,1,6.509-2.77Zm-9.418,87.808v-69.249h-3.324v69.249Z" transform="translate(36 653.102)"/>
    </g>
  </g>
</svg>
