<svg width="1640" height="130" viewBox="0 0 1640 130" fill="none" xmlns="http://www.w3.org/2000/svg">
<g clip-path="url(#clip0)">
<rect width="1640" height="130" fill="white"/>
<g clip-path="url(#clip1)">
<path d="M337.294 1049.36H236.856V100.439H218.867V1049.36H118.428V100.439H100.439V1049.36H0V0H287.824C301.815 0 313.558 4.74703 323.053 14.241C332.548 23.735 337.295 35.478 337.294 49.47V1049.36ZM524.68 0C538.671 0 550.414 4.99703 559.909 14.991C564.536 19.7538 568.177 25.3842 570.621 31.5585C573.065 37.7329 574.264 44.3295 574.15 50.969V1049.36H473.711V575.649H455.722V1049.36H355.283V50.969C355.169 44.3295 356.368 37.7329 358.812 31.5585C361.256 25.3842 364.897 19.7538 369.524 14.991C379.019 4.99703 390.762 0 404.753 0H524.68ZM473.711 475.21V100.439H455.722V475.21H473.711ZM811.005 1049.36H710.567V634.113H692.578V1049.36H592.139V0H761.539C775.53 0 787.273 4.74703 796.768 14.241C806.263 23.735 811.01 35.478 811.009 49.47V464.717C811.123 471.356 809.924 477.953 807.48 484.127C805.036 490.302 801.395 495.932 796.768 500.695C787.274 510.689 775.531 515.686 761.539 515.686H692.578V533.675H761.536C775.527 533.675 787.27 538.672 796.765 548.666C801.392 553.429 805.033 559.059 807.477 565.234C809.921 571.408 811.12 578.004 811.006 584.644L811.005 1049.36ZM692.578 415.247H710.567V100.439H692.578V415.247ZM1047.86 1049.36H947.422V100.439H929.433V515.686H828.995V0H1166.29V515.686H1065.85V100.439H1047.86V1049.36ZM1284.72 575.649V1049.36H1184.28V0H1284.72V475.21H1302.71V0H1403.15V1049.36H1302.71V575.649H1284.72ZM1590.53 0C1604.52 0 1616.26 4.99703 1625.76 14.991C1630.39 19.7538 1634.03 25.3842 1636.47 31.5585C1638.91 37.7329 1640.11 44.3295 1640 50.969V1049.36H1539.56V575.649H1521.57V1049.36H1421.13V50.969C1421.02 44.3295 1422.22 37.7329 1424.66 31.5585C1427.11 25.3842 1430.75 19.7538 1435.37 14.991C1444.87 4.99703 1456.61 0 1470.6 0H1590.53ZM1539.56 475.21V100.439H1521.57V475.21H1539.56Z" fill="black"/>
</g>
</g>
<defs>
<clipPath id="clip0">
<rect width="1640" height="130" fill="white"/>
</clipPath>
<clipPath id="clip1">
<rect width="1640" height="1049.36" fill="white"/>
</clipPath>
</defs>
</svg>
