<svg width="1640" height="130" viewBox="0 0 1640 130" fill="none" xmlns="http://www.w3.org/2000/svg">
<g clip-path="url(#clip0)">
<rect width="1640" height="130" fill="white"/>
<path d="M337.294 130.36H236.856V-818.561H218.867V130.36H118.428V-818.561H100.439V130.36H0V-919H287.824C301.815 -919 313.558 -914.253 323.053 -904.759C332.548 -895.265 337.295 -883.522 337.294 -869.53V130.36ZM524.68 -919C538.671 -919 550.414 -914.003 559.909 -904.009C564.536 -899.246 568.177 -893.616 570.621 -887.441C573.065 -881.267 574.264 -874.671 574.15 -868.031V130.36H473.711V-343.351H455.722V130.36H355.283V-868.031C355.169 -874.671 356.368 -881.267 358.812 -887.441C361.256 -893.616 364.897 -899.246 369.524 -904.009C379.019 -914.003 390.762 -919 404.753 -919H524.68ZM473.711 -443.79V-818.561H455.722V-443.79H473.711ZM811.005 130.36H710.567V-284.887H692.578V130.36H592.139V-919H761.539C775.53 -919 787.273 -914.253 796.768 -904.759C806.263 -895.265 811.01 -883.522 811.009 -869.53V-454.283C811.123 -447.644 809.924 -441.047 807.48 -434.873C805.036 -428.698 801.395 -423.068 796.768 -418.305C787.274 -408.311 775.531 -403.314 761.539 -403.314H692.578V-385.325H761.536C775.527 -385.325 787.27 -380.328 796.765 -370.334C801.392 -365.571 805.033 -359.941 807.477 -353.766C809.921 -347.592 811.12 -340.996 811.006 -334.356L811.005 130.36ZM692.578 -503.753H710.567V-818.561H692.578V-503.753ZM1047.86 130.36H947.422V-818.561H929.433V-403.314H828.995V-919H1166.29V-403.314H1065.85V-818.561H1047.86V130.36ZM1284.72 -343.351V130.36H1184.28V-919H1284.72V-443.79H1302.71V-919H1403.15V130.36H1302.71V-343.351H1284.72ZM1590.53 -919C1604.52 -919 1616.26 -914.003 1625.76 -904.009C1630.39 -899.246 1634.03 -893.616 1636.47 -887.441C1638.91 -881.267 1640.11 -874.671 1640 -868.031V130.36H1539.56V-343.351H1521.57V130.36H1421.13V-868.031C1421.02 -874.671 1422.22 -881.267 1424.66 -887.441C1427.11 -893.616 1430.75 -899.246 1435.37 -904.009C1444.87 -914.003 1456.61 -919 1470.6 -919H1590.53ZM1539.56 -443.79V-818.561H1521.57V-443.79H1539.56Z" fill="black"/>
</g>
<defs>
<clipPath id="clip0">
<rect width="1640" height="130" fill="white"/>
</clipPath>
</defs>
</svg>
