<svg width="302" height="50" viewBox="0 0 302 50" fill="none" xmlns="http://www.w3.org/2000/svg">
<g clip-path="url(#clip0)">
<rect width="302" height="50" fill="white"/>
<path d="M62 416.1H43.5V-179.7H40.2V416.1H21.7V-179.7H18.4V416.1H-0.100006V-198.2H52.9C55.3 -198.3 57.7 -197.3 59.4 -195.6C61.1 -193.9 62.1 -191.5 62 -189.1V416.1ZM96.5 -198.2C99 -198.3 101.3 -197.2 103 -195.4C104.7 -193.6 105.7 -191.2 105.6 -188.8V416.1H87.1V-92.2H83.8V416.1H65.3V-188.8C65.3 -191.3 66.2 -193.7 67.9 -195.4C69.6 -197.2 71.9 -198.2 74.4 -198.2H96.5ZM87.2 -110.7V-179.7H83.9V-110.7H87.2ZM149.3 416.1H130.8V-81.4H127.5V416.1H109V-198.2H140.2C142.6 -198.3 145 -197.3 146.7 -195.6C148.4 -193.9 149.4 -191.5 149.3 -189.1V-112.6C149.3 -110.1 148.4 -107.7 146.7 -106C145 -104.2 142.7 -103.2 140.2 -103.2H127.5V-99.9H140.2C142.7 -100 145 -98.9 146.7 -97.1C148.4 -95.3 149.4 -92.9 149.3 -90.5V416.1ZM127.5 -121.7H130.8V-179.7H127.5V-121.7ZM192.9 416.1H174.4V-179.7H171.1V-103.2H152.6V-198.2H214.7V-103.2H196.2V-179.7H192.9V416.1ZM236.6 -92.2V416.1H218.1V-198.2H236.6V-110.7H239.9V-198.2H258.4V416.1H239.9V-92.2H236.6ZM292.9 -198.2C295.4 -198.3 297.7 -197.2 299.4 -195.4C301.1 -193.6 302.1 -191.2 302 -188.8V416.1H283.5V-92.2H280.2V416.1H261.7V-188.8C261.7 -191.3 262.6 -193.7 264.3 -195.4C266 -197.2 268.3 -198.2 270.8 -198.2H292.9ZM283.5 -110.7V-179.7H280.2V-110.7H283.5Z" fill="black"/>
</g>
<defs>
<clipPath id="clip0">
<rect width="302" height="50" fill="white"/>
</clipPath>
</defs>
</svg>
