<svg width="302" height="50" viewBox="0 0 302 50" fill="none" xmlns="http://www.w3.org/2000/svg">
<g clip-path="url(#clip0)">
<rect width="302" height="50" fill="white"/>
<path d="M62.1 614.307H43.6V18.5069H40.3V614.307H21.8V18.5069H18.5V614.307H0V0.00685622H53C55.4 -0.0931438 57.8 0.906856 59.5 2.60686C61.2 4.30686 62.2 6.70686 62.1 9.10686V614.307ZM96.6 0.00685622C99.1 -0.0931438 101.4 1.00686 103.1 2.80686C104.8 4.60686 105.8 7.00686 105.7 9.40686V614.307H87.2V106.007H83.9V614.307H65.4V9.40686C65.4 6.90686 66.3 4.50686 68 2.80686C69.7 1.00686 72 0.00685622 74.5 0.00685622H96.6ZM87.3 87.5069V18.5069H84V87.5069H87.3ZM149.4 614.307H130.9V116.807H127.6V614.307H109.1V0.00685622H140.3C142.7 -0.0931438 145.1 0.906856 146.8 2.60686C148.5 4.30686 149.5 6.70686 149.4 9.10686V85.6069C149.4 88.1069 148.5 90.5069 146.8 92.2069C145.1 94.0069 142.8 95.0069 140.3 95.0069H127.6V98.3069H140.3C142.8 98.2069 145.1 99.3069 146.8 101.107C148.5 102.907 149.5 105.307 149.4 107.707V614.307ZM127.6 76.5069H130.9V18.5069H127.6V76.5069ZM193 614.307H174.5V18.5069H171.2V95.0069H152.7V0.00685622H214.8V95.0069H196.3V18.5069H193V614.307ZM236.7 106.007V614.307H218.2V0.00685622H236.7V87.5069H240V0.00685622H258.5V614.307H240V106.007H236.7ZM293 0.00685622C295.5 -0.0931438 297.8 1.00686 299.5 2.80686C301.2 4.60686 302.2 7.00686 302.1 9.40686V614.307H283.6V106.007H280.3V614.307H261.8V9.40686C261.8 6.90686 262.7 4.50686 264.4 2.80686C266.1 1.00686 268.4 0.00685622 270.9 0.00685622H293ZM283.6 87.5069V18.5069H280.3V87.5069H283.6Z" fill="black"/>
</g>
<defs>
<clipPath id="clip0">
<rect width="302" height="50" fill="white"/>
</clipPath>
</defs>
</svg>
