<svg xmlns="http://www.w3.org/2000/svg" width="1640" height="1049.36" viewBox="0 0 1640 1049.36">
  <path id="Path_9" data-name="Path 9" d="M337.294,349.36H236.856V-599.561H218.867V349.36H118.428V-599.561H100.439V349.36H0V-700H287.824q20.987,0,35.229,14.241t14.241,35.229ZM524.68-700q20.987,0,35.229,14.991a50.389,50.389,0,0,1,14.241,35.978V349.36H473.711V-124.351H455.722V349.36H355.283V-649.031a50.389,50.389,0,0,1,14.241-35.978Q383.766-700,404.753-700ZM473.711-224.79V-599.561H455.722V-224.79ZM811.005,349.36H710.567V-65.887H692.578V349.36H592.139V-700h169.4q20.987,0,35.229,14.241t14.241,35.229v415.247a50.389,50.389,0,0,1-14.241,35.978q-14.241,14.991-35.229,14.991H692.578v17.989h68.958q20.987,0,35.229,14.991a50.389,50.389,0,0,1,14.241,35.978ZM692.578-284.753h17.989V-599.561H692.578ZM1047.861,349.36H947.422V-599.561H929.433v415.247H828.995V-700h337.294v515.686H1065.85V-599.561h-17.989Zm236.856-473.711V349.36H1184.278V-700h100.439v475.21h17.989V-700h100.439V349.36H1302.706V-124.351ZM1590.53-700q20.987,0,35.229,14.991A50.389,50.389,0,0,1,1640-649.031V349.36H1539.561V-124.351h-17.989V349.36H1421.133V-649.031a50.389,50.389,0,0,1,14.241-35.978Q1449.616-700,1470.6-700Zm-50.969,475.21V-599.561h-17.989V-224.79Z" transform="translate(0 700)"/>
</svg>
