<svg id="Group_1" data-name="Group 1" xmlns="http://www.w3.org/2000/svg" xmlns:xlink="http://www.w3.org/1999/xlink" width="374" height="650" viewBox="0 0 374 650">
  <defs>
    <clipPath id="clip-path">
      <rect id="Rectangle_5" data-name="Rectangle 5" width="374" height="147" fill="none"/>
    </clipPath>
    <clipPath id="clip-path-2">
      <rect id="Rectangle_6" data-name="Rectangle 6" width="374" height="70" transform="translate(0 -0.253)" fill="none"/>
    </clipPath>
    <clipPath id="clip-path-3">
      <rect id="Rectangle_11" data-name="Rectangle 11" width="374" height="70" transform="translate(0 0.168)" fill="none"/>
    </clipPath>
    <clipPath id="clip-path-4">
      <rect id="Rectangle_7" data-name="Rectangle 7" width="374" height="70" transform="translate(0 -0.448)" fill="none"/>
    </clipPath>
    <clipPath id="clip-path-5">
      <rect id="Rectangle_10" data-name="Rectangle 10" width="374" height="70" transform="translate(0 -0.027)" fill="none"/>
    </clipPath>
    <clipPath id="clip-path-6">
      <rect id="Rectangle_8" data-name="Rectangle 8" width="374" height="69" transform="translate(0 0.36)" fill="none"/>
    </clipPath>
    <clipPath id="clip-path-7">
      <rect id="Rectangle_9" data-name="Rectangle 9" width="374" height="70" transform="translate(0 -0.219)" fill="none"/>
    </clipPath>
    <clipPath id="clip-path-8">
      <rect id="Rectangle_12" data-name="Rectangle 12" width="374" height="69" transform="translate(0 0.426)" fill="none"/>
    </clipPath>
    <clipPath id="clip-path-9">
      <rect id="Rectangle_13" data-name="Rectangle 13" width="374" height="70" transform="translate(0 -0.396)" fill="none"/>
    </clipPath>
  </defs>
  <g id="Mask_Group_1" data-name="Mask Group 1" clip-path="url(#clip-path)">
    <path id="Path_11" data-name="Path 11" d="M62.137-506.685h-18.5V-681.5H40.32v174.812h-18.5V-681.5H18.5v174.812H0V-700H53.024a8.815,8.815,0,0,1,6.49,2.624,8.815,8.815,0,0,1,2.624,6.49ZM96.658-700a8.593,8.593,0,0,1,6.49,2.762,9.283,9.283,0,0,1,2.624,6.628v183.926h-18.5v-87.268H83.954v87.268h-18.5V-690.61a9.283,9.283,0,0,1,2.624-6.628A8.593,8.593,0,0,1,74.565-700Zm-9.39,87.544V-681.5H83.954v69.041Zm62.137,105.771H130.9v-76.5h-3.314v76.5h-18.5V-700h31.207a8.815,8.815,0,0,1,6.49,2.624,8.815,8.815,0,0,1,2.624,6.49v76.5a9.283,9.283,0,0,1-2.624,6.628,8.593,8.593,0,0,1-6.49,2.762h-12.7v3.314h12.7a8.593,8.593,0,0,1,6.49,2.762,9.283,9.283,0,0,1,2.624,6.628ZM127.588-623.5H130.9V-681.5h-3.314Zm65.451,116.818h-18.5V-681.5h-3.314V-605h-18.5v-95h62.137v95h-18.5v-76.5h-3.314Zm43.634-87.268v87.268h-18.5V-700h18.5v87.544h3.314V-700h18.5v193.315h-18.5v-87.268ZM293.011-700a8.593,8.593,0,0,1,6.49,2.762,9.283,9.283,0,0,1,2.624,6.628v183.926h-18.5v-87.268h-3.314v87.268H261.8V-690.61a9.283,9.283,0,0,1,2.624-6.628,8.593,8.593,0,0,1,6.49-2.762Zm-9.39,87.544V-681.5h-3.314v69.041Z" transform="translate(35.892 715.772)"/>
  </g>
  <g id="Mask_Group_2" data-name="Mask Group 2" transform="translate(0 580.253)" clip-path="url(#clip-path-2)">
    <path id="Path_12" data-name="Path 12" d="M62.137-506.685h-18.5V-681.5H40.32v174.812h-18.5V-681.5H18.5v174.812H0V-700H53.024a8.815,8.815,0,0,1,6.49,2.624,8.815,8.815,0,0,1,2.624,6.49ZM96.658-700a8.593,8.593,0,0,1,6.49,2.762,9.283,9.283,0,0,1,2.624,6.628v183.926h-18.5v-87.268H83.954v87.268h-18.5V-690.61a9.283,9.283,0,0,1,2.624-6.628A8.593,8.593,0,0,1,74.565-700Zm-9.39,87.544V-681.5H83.954v69.041Zm62.137,105.771H130.9v-76.5h-3.314v76.5h-18.5V-700h31.207a8.815,8.815,0,0,1,6.49,2.624,8.815,8.815,0,0,1,2.624,6.49v76.5a9.283,9.283,0,0,1-2.624,6.628,8.593,8.593,0,0,1-6.49,2.762h-12.7v3.314h12.7a8.593,8.593,0,0,1,6.49,2.762,9.283,9.283,0,0,1,2.624,6.628ZM127.588-623.5H130.9V-681.5h-3.314Zm65.451,116.818h-18.5V-681.5h-3.314V-605h-18.5v-95h62.137v95h-18.5v-76.5h-3.314Zm43.634-87.268v87.268h-18.5V-700h18.5v87.544h3.314V-700h18.5v193.315h-18.5v-87.268ZM293.011-700a8.593,8.593,0,0,1,6.49,2.762,9.283,9.283,0,0,1,2.624,6.628v183.926h-18.5v-87.268h-3.314v87.268H261.8V-690.61a9.283,9.283,0,0,1,2.624-6.628,8.593,8.593,0,0,1,6.49-2.762Zm-9.39,87.544V-681.5h-3.314v69.041Z" transform="translate(35.892 576.474)"/>
  </g>
  <g id="Mask_Group_7" data-name="Mask Group 7" transform="translate(0 387.832)" clip-path="url(#clip-path-3)">
    <path id="Path_17" data-name="Path 17" d="M62.137-506.685h-18.5V-681.5H40.32v174.812h-18.5V-681.5H18.5v174.812H0V-700H53.024a8.815,8.815,0,0,1,6.49,2.624,8.815,8.815,0,0,1,2.624,6.49ZM96.658-700a8.593,8.593,0,0,1,6.49,2.762,9.283,9.283,0,0,1,2.624,6.628v183.926h-18.5v-87.268H83.954v87.268h-18.5V-690.61a9.283,9.283,0,0,1,2.624-6.628A8.593,8.593,0,0,1,74.565-700Zm-9.39,87.544V-681.5H83.954v69.041Zm62.137,105.771H130.9v-76.5h-3.314v76.5h-18.5V-700h31.207a8.815,8.815,0,0,1,6.49,2.624,8.815,8.815,0,0,1,2.624,6.49v76.5a9.283,9.283,0,0,1-2.624,6.628,8.593,8.593,0,0,1-6.49,2.762h-12.7v3.314h12.7a8.593,8.593,0,0,1,6.49,2.762,9.283,9.283,0,0,1,2.624,6.628ZM127.588-623.5H130.9V-681.5h-3.314Zm65.451,116.818h-18.5V-681.5h-3.314V-605h-18.5v-95h62.137v95h-18.5v-76.5h-3.314Zm43.634-87.268v87.268h-18.5V-700h18.5v87.544h3.314V-700h18.5v193.315h-18.5v-87.268ZM293.011-700a8.593,8.593,0,0,1,6.49,2.762,9.283,9.283,0,0,1,2.624,6.628v183.926h-18.5v-87.268h-3.314v87.268H261.8V-690.61a9.283,9.283,0,0,1,2.624-6.628,8.593,8.593,0,0,1,6.49-2.762Zm-9.39,87.544V-681.5h-3.314v69.041Z" transform="translate(35.892 576.474)"/>
  </g>
  <g id="Mask_Group_3" data-name="Mask Group 3" transform="translate(0 515.448)" clip-path="url(#clip-path-4)">
    <path id="Path_13" data-name="Path 13" d="M62.137-506.685h-18.5V-681.5H40.32v174.812h-18.5V-681.5H18.5v174.812H0V-700H53.024a8.815,8.815,0,0,1,6.49,2.624,8.815,8.815,0,0,1,2.624,6.49ZM96.658-700a8.593,8.593,0,0,1,6.49,2.762,9.283,9.283,0,0,1,2.624,6.628v183.926h-18.5v-87.268H83.954v87.268h-18.5V-690.61a9.283,9.283,0,0,1,2.624-6.628A8.593,8.593,0,0,1,74.565-700Zm-9.39,87.544V-681.5H83.954v69.041Zm62.137,105.771H130.9v-76.5h-3.314v76.5h-18.5V-700h31.207a8.815,8.815,0,0,1,6.49,2.624,8.815,8.815,0,0,1,2.624,6.49v76.5a9.283,9.283,0,0,1-2.624,6.628,8.593,8.593,0,0,1-6.49,2.762h-12.7v3.314h12.7a8.593,8.593,0,0,1,6.49,2.762,9.283,9.283,0,0,1,2.624,6.628ZM127.588-623.5H130.9V-681.5h-3.314Zm65.451,116.818h-18.5V-681.5h-3.314V-605h-18.5v-95h62.137v95h-18.5v-76.5h-3.314Zm43.634-87.268v87.268h-18.5V-700h18.5v87.544h3.314V-700h18.5v193.315h-18.5v-87.268ZM293.011-700a8.593,8.593,0,0,1,6.49,2.762,9.283,9.283,0,0,1,2.624,6.628v183.926h-18.5v-87.268h-3.314v87.268H261.8V-690.61a9.283,9.283,0,0,1,2.624-6.628,8.593,8.593,0,0,1,6.49-2.762Zm-9.39,87.544V-681.5h-3.314v69.041Z" transform="translate(35.892 576.474)"/>
  </g>
  <g id="Mask_Group_6" data-name="Mask Group 6" transform="translate(0 323.027)" clip-path="url(#clip-path-5)">
    <path id="Path_16" data-name="Path 16" d="M62.137-506.685h-18.5V-681.5H40.32v174.812h-18.5V-681.5H18.5v174.812H0V-700H53.024a8.815,8.815,0,0,1,6.49,2.624,8.815,8.815,0,0,1,2.624,6.49ZM96.658-700a8.593,8.593,0,0,1,6.49,2.762,9.283,9.283,0,0,1,2.624,6.628v183.926h-18.5v-87.268H83.954v87.268h-18.5V-690.61a9.283,9.283,0,0,1,2.624-6.628A8.593,8.593,0,0,1,74.565-700Zm-9.39,87.544V-681.5H83.954v69.041Zm62.137,105.771H130.9v-76.5h-3.314v76.5h-18.5V-700h31.207a8.815,8.815,0,0,1,6.49,2.624,8.815,8.815,0,0,1,2.624,6.49v76.5a9.283,9.283,0,0,1-2.624,6.628,8.593,8.593,0,0,1-6.49,2.762h-12.7v3.314h12.7a8.593,8.593,0,0,1,6.49,2.762,9.283,9.283,0,0,1,2.624,6.628ZM127.588-623.5H130.9V-681.5h-3.314Zm65.451,116.818h-18.5V-681.5h-3.314V-605h-18.5v-95h62.137v95h-18.5v-76.5h-3.314Zm43.634-87.268v87.268h-18.5V-700h18.5v87.544h3.314V-700h18.5v193.315h-18.5v-87.268ZM293.011-700a8.593,8.593,0,0,1,6.49,2.762,9.283,9.283,0,0,1,2.624,6.628v183.926h-18.5v-87.268h-3.314v87.268H261.8V-690.61a9.283,9.283,0,0,1,2.624-6.628,8.593,8.593,0,0,1,6.49-2.762Zm-9.39,87.544V-681.5h-3.314v69.041Z" transform="translate(35.892 576.474)"/>
  </g>
  <g id="Mask_Group_4" data-name="Mask Group 4" transform="translate(0 451.64)" clip-path="url(#clip-path-6)">
    <path id="Path_14" data-name="Path 14" d="M62.137-506.685h-18.5V-681.5H40.32v174.812h-18.5V-681.5H18.5v174.812H0V-700H53.024a8.815,8.815,0,0,1,6.49,2.624,8.815,8.815,0,0,1,2.624,6.49ZM96.658-700a8.593,8.593,0,0,1,6.49,2.762,9.283,9.283,0,0,1,2.624,6.628v183.926h-18.5v-87.268H83.954v87.268h-18.5V-690.61a9.283,9.283,0,0,1,2.624-6.628A8.593,8.593,0,0,1,74.565-700Zm-9.39,87.544V-681.5H83.954v69.041Zm62.137,105.771H130.9v-76.5h-3.314v76.5h-18.5V-700h31.207a8.815,8.815,0,0,1,6.49,2.624,8.815,8.815,0,0,1,2.624,6.49v76.5a9.283,9.283,0,0,1-2.624,6.628,8.593,8.593,0,0,1-6.49,2.762h-12.7v3.314h12.7a8.593,8.593,0,0,1,6.49,2.762,9.283,9.283,0,0,1,2.624,6.628ZM127.588-623.5H130.9V-681.5h-3.314Zm65.451,116.818h-18.5V-681.5h-3.314V-605h-18.5v-95h62.137v95h-18.5v-76.5h-3.314Zm43.634-87.268v87.268h-18.5V-700h18.5v87.544h3.314V-700h18.5v193.315h-18.5v-87.268ZM293.011-700a8.593,8.593,0,0,1,6.49,2.762,9.283,9.283,0,0,1,2.624,6.628v183.926h-18.5v-87.268h-3.314v87.268H261.8V-690.61a9.283,9.283,0,0,1,2.624-6.628,8.593,8.593,0,0,1,6.49-2.762Zm-9.39,87.544V-681.5h-3.314v69.041Z" transform="translate(35.892 576.474)"/>
  </g>
  <g id="Mask_Group_5" data-name="Mask Group 5" transform="translate(0 259.219)" clip-path="url(#clip-path-7)">
    <path id="Path_15" data-name="Path 15" d="M62.137-506.685h-18.5V-681.5H40.32v174.812h-18.5V-681.5H18.5v174.812H0V-700H53.024a8.815,8.815,0,0,1,6.49,2.624,8.815,8.815,0,0,1,2.624,6.49ZM96.658-700a8.593,8.593,0,0,1,6.49,2.762,9.283,9.283,0,0,1,2.624,6.628v183.926h-18.5v-87.268H83.954v87.268h-18.5V-690.61a9.283,9.283,0,0,1,2.624-6.628A8.593,8.593,0,0,1,74.565-700Zm-9.39,87.544V-681.5H83.954v69.041Zm62.137,105.771H130.9v-76.5h-3.314v76.5h-18.5V-700h31.207a8.815,8.815,0,0,1,6.49,2.624,8.815,8.815,0,0,1,2.624,6.49v76.5a9.283,9.283,0,0,1-2.624,6.628,8.593,8.593,0,0,1-6.49,2.762h-12.7v3.314h12.7a8.593,8.593,0,0,1,6.49,2.762,9.283,9.283,0,0,1,2.624,6.628ZM127.588-623.5H130.9V-681.5h-3.314Zm65.451,116.818h-18.5V-681.5h-3.314V-605h-18.5v-95h62.137v95h-18.5v-76.5h-3.314Zm43.634-87.268v87.268h-18.5V-700h18.5v87.544h3.314V-700h18.5v193.315h-18.5v-87.268ZM293.011-700a8.593,8.593,0,0,1,6.49,2.762,9.283,9.283,0,0,1,2.624,6.628v183.926h-18.5v-87.268h-3.314v87.268H261.8V-690.61a9.283,9.283,0,0,1,2.624-6.628,8.593,8.593,0,0,1,6.49-2.762Zm-9.39,87.544V-681.5h-3.314v69.041Z" transform="translate(35.892 576.474)"/>
  </g>
  <g id="Mask_Group_8" data-name="Mask Group 8" transform="translate(0 141.574)" clip-path="url(#clip-path-8)">
    <path id="Path_18" data-name="Path 18" d="M62.137-506.685h-18.5V-681.5H40.32v174.812h-18.5V-681.5H18.5v174.812H0V-700H53.024a8.815,8.815,0,0,1,6.49,2.624,8.815,8.815,0,0,1,2.624,6.49ZM96.658-700a8.593,8.593,0,0,1,6.49,2.762,9.283,9.283,0,0,1,2.624,6.628v183.926h-18.5v-87.268H83.954v87.268h-18.5V-690.61a9.283,9.283,0,0,1,2.624-6.628A8.593,8.593,0,0,1,74.565-700Zm-9.39,87.544V-681.5H83.954v69.041Zm62.137,105.771H130.9v-76.5h-3.314v76.5h-18.5V-700h31.207a8.815,8.815,0,0,1,6.49,2.624,8.815,8.815,0,0,1,2.624,6.49v76.5a9.283,9.283,0,0,1-2.624,6.628,8.593,8.593,0,0,1-6.49,2.762h-12.7v3.314h12.7a8.593,8.593,0,0,1,6.49,2.762,9.283,9.283,0,0,1,2.624,6.628ZM127.588-623.5H130.9V-681.5h-3.314Zm65.451,116.818h-18.5V-681.5h-3.314V-605h-18.5v-95h62.137v95h-18.5v-76.5h-3.314Zm43.634-87.268v87.268h-18.5V-700h18.5v87.544h3.314V-700h18.5v193.315h-18.5v-87.268ZM293.011-700a8.593,8.593,0,0,1,6.49,2.762,9.283,9.283,0,0,1,2.624,6.628v183.926h-18.5v-87.268h-3.314v87.268H261.8V-690.61a9.283,9.283,0,0,1,2.624-6.628,8.593,8.593,0,0,1,6.49-2.762Zm-9.39,87.544V-681.5h-3.314v69.041Z" transform="translate(35.892 581.459)"/>
  </g>
  <g id="Mask_Group_9" data-name="Mask Group 9" transform="translate(0 200.396)" clip-path="url(#clip-path-9)">
    <path id="Path_19" data-name="Path 19" d="M62.137-506.685h-18.5V-681.5H40.32v174.812h-18.5V-681.5H18.5v174.812H0V-700H53.024a8.815,8.815,0,0,1,6.49,2.624,8.815,8.815,0,0,1,2.624,6.49ZM96.658-700a8.593,8.593,0,0,1,6.49,2.762,9.283,9.283,0,0,1,2.624,6.628v183.926h-18.5v-87.268H83.954v87.268h-18.5V-690.61a9.283,9.283,0,0,1,2.624-6.628A8.593,8.593,0,0,1,74.565-700Zm-9.39,87.544V-681.5H83.954v69.041Zm62.137,105.771H130.9v-76.5h-3.314v76.5h-18.5V-700h31.207a8.815,8.815,0,0,1,6.49,2.624,8.815,8.815,0,0,1,2.624,6.49v76.5a9.283,9.283,0,0,1-2.624,6.628,8.593,8.593,0,0,1-6.49,2.762h-12.7v3.314h12.7a8.593,8.593,0,0,1,6.49,2.762,9.283,9.283,0,0,1,2.624,6.628ZM127.588-623.5H130.9V-681.5h-3.314Zm65.451,116.818h-18.5V-681.5h-3.314V-605h-18.5v-95h62.137v95h-18.5v-76.5h-3.314Zm43.634-87.268v87.268h-18.5V-700h18.5v87.544h3.314V-700h18.5v193.315h-18.5v-87.268ZM293.011-700a8.593,8.593,0,0,1,6.49,2.762,9.283,9.283,0,0,1,2.624,6.628v183.926h-18.5v-87.268h-3.314v87.268H261.8V-690.61a9.283,9.283,0,0,1,2.624-6.628,8.593,8.593,0,0,1,6.49-2.762Zm-9.39,87.544V-681.5h-3.314v69.041Z" transform="translate(35.892 576.474)"/>
  </g>
</svg>
