<svg width="302" height="130" viewBox="0 0 302 130" fill="none" xmlns="http://www.w3.org/2000/svg">
<g clip-path="url(#clip0)">
<rect width="302" height="130" fill="white"/>
<path d="M62 614.1H43.5V18.3H40.2V614.1H21.7V18.3H18.4V614.1H-0.100006V-0.199992H52.9C55.3 -0.299992 57.7 0.700007 59.4 2.40001C61.1 4.10001 62.1 6.50001 62 8.90001V614.1ZM96.5 -0.199992C99 -0.299992 101.3 0.800008 103 2.60001C104.7 4.40001 105.7 6.80001 105.6 9.20001V614.1H87.1V105.8H83.8V614.1H65.3V9.20001C65.3 6.70001 66.2 4.30001 67.9 2.60001C69.6 0.800008 71.9 -0.199992 74.4 -0.199992H96.5ZM87.2 87.3V18.3H83.9V87.3H87.2ZM149.3 614.1H130.8V116.6H127.5V614.1H109V-0.199992H140.2C142.6 -0.299992 145 0.700007 146.7 2.40001C148.4 4.10001 149.4 6.50001 149.3 8.90001V85.4C149.3 87.9 148.4 90.3 146.7 92C145 93.8 142.7 94.8 140.2 94.8H127.5V98.1H140.2C142.7 98 145 99.1 146.7 100.9C148.4 102.7 149.4 105.1 149.3 107.5V614.1ZM127.5 76.3H130.8V18.3H127.5V76.3ZM192.9 614.1H174.4V18.3H171.1V94.8H152.6V-0.199992H214.7V94.8H196.2V18.3H192.9V614.1ZM236.6 105.8V614.1H218.1V-0.199992H236.6V87.3H239.9V-0.199992H258.4V614.1H239.9V105.8H236.6ZM292.9 -0.199992C295.4 -0.299992 297.7 0.800008 299.4 2.60001C301.1 4.40001 302.1 6.80001 302 9.20001V614.1H283.5V105.8H280.2V614.1H261.7V9.20001C261.7 6.70001 262.6 4.30001 264.3 2.60001C266 0.800008 268.3 -0.199992 270.8 -0.199992H292.9ZM283.5 87.3V18.3H280.2V87.3H283.5Z" fill="black"/>
</g>
<defs>
<clipPath id="clip0">
<rect width="302" height="130" fill="white"/>
</clipPath>
</defs>
</svg>
