<?xml version="1.0" encoding="utf-8"?>
<!-- Generator: Adobe Illustrator 25.2.3, SVG Export Plug-In . SVG Version: 6.00 Build 0)  -->
<svg version="1.1" id="Gruppe_1" xmlns="http://www.w3.org/2000/svg" xmlns:xlink="http://www.w3.org/1999/xlink" x="0px" y="0px"
	 width="374px" height="650px" viewBox="0 0 374 650" style="enable-background:new 0 0 374 650;" xml:space="preserve">
<g id="Gruppe_maskieren_1">
	<path id="Pfad_11" d="M98,630.1H79.5V34.3h-3.3v595.8H57.7V34.3h-3.3v595.8H35.9V15.8h53c2.4-0.1,4.8,0.9,6.5,2.6
		c1.7,1.7,2.7,4.1,2.6,6.5L98,630.1z M132.5,15.8c2.5-0.1,4.8,1,6.5,2.8c1.7,1.8,2.7,4.2,2.6,6.6v604.9h-18.5V121.8h-3.3v508.3
		h-18.5V25.2c0-2.5,0.9-4.9,2.6-6.6c1.7-1.8,4-2.8,6.5-2.8H132.5z M123.2,103.3v-69h-3.3v69L123.2,103.3z M185.3,630.1h-18.5V132.6
		h-3.3v497.5H145V15.8h31.2c2.4-0.1,4.8,0.9,6.5,2.6c1.7,1.7,2.7,4.1,2.6,6.5v76.5c0,2.5-0.9,4.9-2.6,6.6c-1.7,1.8-4,2.8-6.5,2.8
		h-12.7v3.3h12.7c2.5-0.1,4.8,1,6.5,2.8c1.7,1.8,2.7,4.2,2.6,6.6L185.3,630.1z M163.5,92.3h3.3v-58h-3.3L163.5,92.3z M228.9,630.1
		h-18.5V34.3h-3.3v76.5h-18.5v-95h62.1v95h-18.5V34.3h-3.3L228.9,630.1z M272.6,121.8v508.3h-18.5V15.8h18.5v87.5h3.3V15.8h18.5
		v614.3h-18.5V121.8L272.6,121.8z M328.9,15.8c2.5-0.1,4.8,1,6.5,2.8c1.7,1.8,2.7,4.2,2.6,6.6v604.9h-18.5V121.8h-3.3v508.3h-18.5
		V25.2c0-2.5,0.9-4.9,2.6-6.6c1.7-1.8,4-2.8,6.5-2.8H328.9z M319.5,103.3v-69h-3.3v69L319.5,103.3z"/>
</g>
</svg>
